<svg width="102" height="102" viewBox="0 0 102 102" fill="none" xmlns="http://www.w3.org/2000/svg">
<rect width="102" height="102" rx="30" fill="#7700A1"/>
<path d="M33 35C33 33.6739 33.5268 32.4021 34.4645 31.4645C35.4021 30.5268 36.6739 30 38 30H63C64.3261 30 65.5979 30.5268 66.5355 31.4645C67.4732 32.4021 68 33.6739 68 35V40C68 41.3261 67.4732 42.5979 66.5355 43.5355C65.5979 44.4732 64.3261 45 63 45H38C36.6739 45 35.4021 44.4732 34.4645 43.5355C33.5268 42.5979 33 41.3261 33 40V35Z" stroke="white" stroke-width="6" stroke-linecap="round" stroke-linejoin="round"/>
<path d="M68 37.5H70.5C71.8261 37.5 73.0979 38.0268 74.0355 38.9645C74.9732 39.9021 75.5 41.1739 75.5 42.5C75.5 45.8152 74.183 48.9946 71.8388 51.3388C69.4946 53.683 66.3152 55 63 55H50.5V60M45.5 62.5C45.5 61.837 45.7634 61.2011 46.2322 60.7322C46.7011 60.2634 47.337 60 48 60H53C53.663 60 54.2989 60.2634 54.7678 60.7322C55.2366 61.2011 55.5 61.837 55.5 62.5V72.5C55.5 73.163 55.2366 73.7989 54.7678 74.2678C54.2989 74.7366 53.663 75 53 75H48C47.337 75 46.7011 74.7366 46.2322 74.2678C45.7634 73.7989 45.5 73.163 45.5 72.5V62.5Z" stroke="white" stroke-width="6" stroke-linecap="round" stroke-linejoin="round"/>
</svg>
