<svg width="102" height="102" viewBox="0 0 102 102" fill="none" xmlns="http://www.w3.org/2000/svg">
<rect width="102" height="102" rx="30" fill="black" fill-opacity="0.35"/>
<path d="M54.5641 28.0002L25 40.2461V72.2461L54.5641 60.0002V28.0002Z" stroke="white" stroke-width="6" stroke-linejoin="round"/>
<path d="M74.8787 52.212L72.7574 54.3333L77 58.576L79.1213 56.4547L74.8787 52.212ZM83.6667 47.6667L85.788 49.788C86.9596 48.6164 86.9596 46.7169 85.788 45.5453L83.6667 47.6667ZM79.1213 38.8787L77 36.7574L72.7574 41L74.8787 43.1213L79.1213 38.8787ZM79.1213 56.4547L85.788 49.788L81.5453 45.5453L74.8787 52.212L79.1213 56.4547ZM85.788 45.5453L79.1213 38.8787L74.8787 43.1213L81.5453 49.788L85.788 45.5453ZM83.6667 44.6667H62V50.6667H83.6667V44.6667Z" fill="white"/>
</svg>
