<svg width="102" height="102" viewBox="0 0 102 102" fill="none" xmlns="http://www.w3.org/2000/svg">
<rect width="102" height="102" rx="30" fill="black" fill-opacity="0.35"/>
<path d="M44.3841 42.0002L32 46.9409V60.2743L44.3841 55.3335V42.0002Z" fill="white" stroke="white" stroke-width="6" stroke-linejoin="round"/>
<path d="M62.8787 55.212L60.7574 57.3333L65 61.576L67.1213 59.4547L62.8787 55.212ZM71.6667 50.6667L73.788 52.788C74.9596 51.6164 74.9596 49.7169 73.788 48.5453L71.6667 50.6667ZM67.1213 41.8787L65 39.7574L60.7574 44L62.8787 46.1213L67.1213 41.8787ZM67.1213 59.4547L73.788 52.788L69.5453 48.5453L62.8787 55.212L67.1213 59.4547ZM73.788 48.5453L67.1213 41.8787L62.8787 46.1213L69.5453 52.788L73.788 48.5453ZM71.6667 47.6667H50V53.6667H71.6667V47.6667Z" fill="white"/>
</svg>
