<svg width="102" height="102" viewBox="0 0 102 102" fill="none" xmlns="http://www.w3.org/2000/svg">
<rect width="102" height="102" rx="30" fill="black" fill-opacity="0.35"/>
<path d="M69.25 29H64.5625C64.3139 29 64.0754 29.0988 63.8996 29.2746C63.7238 29.4504 63.625 29.6889 63.625 29.9375V40.25C63.625 41.2446 63.2299 42.1984 62.5267 42.9017C61.8234 43.6049 60.8696 44 59.875 44H41.1883C40.7036 44.0077 40.234 43.8313 39.8743 43.5064C39.5146 43.1815 39.2915 42.7322 39.25 42.2492C39.233 41.9928 39.2689 41.7355 39.3554 41.4935C39.442 41.2515 39.5774 41.0298 39.7533 40.8424C39.9291 40.6549 40.1416 40.5055 40.3776 40.4036C40.6136 40.3017 40.868 40.2495 41.125 40.25H58.9375C59.1862 40.25 59.4246 40.1512 59.6004 39.9754C59.7762 39.7996 59.875 39.5612 59.875 39.3125V29.9375C59.875 29.6889 59.7762 29.4504 59.6004 29.2746C59.4246 29.0988 59.1862 29 58.9375 29H41.9008C41.4082 28.9984 40.9201 29.0948 40.4651 29.2835C40.01 29.4722 39.597 29.7495 39.25 30.0992L29.0992 40.25C28.7495 40.597 28.4722 41.01 28.2835 41.4651C28.0948 41.9201 27.9984 42.4082 28 42.9008V70.25C28 71.2446 28.3951 72.1984 29.0984 72.9017C29.8016 73.6049 30.7555 74 31.75 74H69.25C70.2446 74 71.1984 73.6049 71.9017 72.9017C72.6049 72.1984 73 71.2446 73 70.25V32.75C73 31.7555 72.6049 30.8016 71.9017 30.0984C71.1984 29.3951 70.2446 29 69.25 29ZM50.5 64.625C49.0167 64.625 47.5666 64.1852 46.3332 63.361C45.0999 62.5369 44.1386 61.3656 43.5709 59.9951C43.0033 58.6247 42.8547 57.1167 43.1441 55.6618C43.4335 54.207 44.1478 52.8706 45.1967 51.8217C46.2456 50.7728 47.582 50.0585 49.0368 49.7691C50.4917 49.4797 51.9997 49.6283 53.3701 50.1959C54.7406 50.7636 55.9119 51.7249 56.736 52.9582C57.5602 54.1916 58 55.6417 58 57.125C58 59.1141 57.2098 61.0218 55.8033 62.4283C54.3968 63.8348 52.4891 64.625 50.5 64.625Z" fill="white"/>
</svg>
