<svg width="102" height="102" viewBox="0 0 102 102" fill="none" xmlns="http://www.w3.org/2000/svg">
<rect width="102" height="102" rx="30" fill="black" fill-opacity="0.35"/>
<path d="M39.9233 51C39.9233 50.4937 40.1178 50.0081 40.464 49.6501C40.8103 49.292 41.2799 49.0909 41.7695 49.0909H58.3852V36.6818C58.3852 32.8636 54.4863 30 51.0004 30H33.4617C31.7485 30.0019 30.106 30.7065 28.8946 31.9592C27.6832 33.2118 27.0018 34.9103 27 36.6818V65.3182C27.0018 67.0897 27.6832 68.7882 28.8946 70.0408C30.106 71.2935 31.7485 71.9981 33.4617 72H51.9235C53.6367 71.9981 55.2792 71.2935 56.4906 70.0408C57.702 68.7882 58.3833 67.0897 58.3852 65.3182V52.9091H41.7695C41.2799 52.9091 40.8103 52.708 40.464 52.3499C40.1178 51.9919 39.9233 51.5063 39.9233 51ZM74.4597 49.6505L65.2288 40.1051C64.8797 39.7621 64.4149 39.5738 63.9335 39.5802C63.4521 39.5865 62.9921 39.7871 62.6517 40.1392C62.3113 40.4912 62.1173 40.9668 62.1111 41.4647C62.105 41.9625 62.2871 42.4431 62.6187 42.804L68.6973 49.0909H58.3852V52.9091H68.6973L62.6187 59.196C62.4401 59.3715 62.2972 59.5822 62.1985 59.8157C62.0999 60.0492 62.0474 60.3008 62.0443 60.5556C62.0411 60.8104 62.0873 61.0632 62.1802 61.2993C62.273 61.5353 62.4106 61.7498 62.5849 61.9299C62.7591 62.1101 62.9665 62.2524 63.1947 62.3484C63.423 62.4444 63.6675 62.4922 63.9139 62.4889C64.1604 62.4857 64.4036 62.4314 64.6294 62.3294C64.8553 62.2274 65.059 62.0797 65.2288 61.8949L74.4597 52.3495C74.8057 51.9915 75 51.5061 75 51C75 50.4939 74.8057 50.0085 74.4597 49.6505Z" fill="white"/>
</svg>
