<svg width="102" height="102" viewBox="0 0 102 102" fill="none" xmlns="http://www.w3.org/2000/svg">
<rect width="102" height="102" rx="30" fill="black" fill-opacity="0.35"/>
<path d="M68.3116 53.8418C69.46 54.9328 70.0342 56.2247 70.0342 57.7176C69.9768 59.2105 69.46 60.4738 68.4839 61.5073C67.4503 62.5408 66.1297 63.0576 64.5219 63.0576L37.4775 63.0576C35.8697 63.0576 34.5491 62.5408 33.5155 61.5073C32.482 60.4738 31.9652 59.2105 31.9652 57.7176C31.9652 56.2247 32.5394 54.9328 33.6878 53.8418L47.0378 40.4918C48.0713 39.4583 49.392 38.9415 50.9997 38.9415C52.55 38.9415 53.8707 39.4583 54.9616 40.4918L68.3116 53.8418Z" fill="white"/>
</svg>
