<svg width="102" height="102" viewBox="0 0 102 102" fill="none" xmlns="http://www.w3.org/2000/svg">
<rect width="102" height="102" rx="30" fill="black" fill-opacity="0.35"/>
<path fill-rule="evenodd" clip-rule="evenodd" d="M73.4 32.333H28.6C26.5382 32.333 24.8667 34.0045 24.8667 36.0663V65.933C24.8667 67.9949 26.5382 69.6663 28.6 69.6663H73.4C75.4619 69.6663 77.1334 67.9949 77.1334 65.933V36.0663C77.1334 34.0045 75.4619 32.333 73.4 32.333ZM32.3335 37.7998C31.2289 37.7998 30.3335 38.6952 30.3335 39.7998V43.3998C30.3335 44.5044 31.2289 45.3998 32.3335 45.3998H32.5335C33.5276 45.3998 34.3335 44.5939 34.3335 43.5998C34.3335 42.6057 35.1394 41.7998 36.1335 41.7998C37.1276 41.7998 37.9335 40.9939 37.9335 39.9998V39.7998C37.9335 38.6952 37.0381 37.7998 35.9335 37.7998H32.3335ZM65.8668 41.7998C66.8609 41.7998 67.6668 42.6057 67.6668 43.5998C67.6668 44.5939 68.4727 45.3998 69.4668 45.3998H69.6668C70.7714 45.3998 71.6668 44.5044 71.6668 43.3998V39.7998C71.6668 38.6952 70.7714 37.7998 69.6668 37.7998H66.0668C64.9623 37.7998 64.0668 38.6952 64.0668 39.7998V39.9998C64.0668 40.9939 64.8727 41.7998 65.8668 41.7998ZM51.0002 41.5331C45.7719 41.5331 41.5335 45.7715 41.5335 50.9998C41.5335 56.2281 45.7719 60.4665 51.0002 60.4665C56.2285 60.4665 60.4668 56.2281 60.4668 50.9998C60.4668 45.7715 56.2285 41.5331 51.0002 41.5331ZM45.5335 50.9998C45.5335 47.9806 47.981 45.5331 51.0002 45.5331C54.0193 45.5331 56.4668 47.9806 56.4668 50.9998C56.4668 54.019 54.0193 56.4665 51.0002 56.4665C47.981 56.4665 45.5335 54.019 45.5335 50.9998ZM32.3335 56.5998C31.2289 56.5998 30.3335 57.4952 30.3335 58.5998V62.1998C30.3335 63.3044 31.2289 64.1998 32.3335 64.1998H35.9335C37.0381 64.1998 37.9335 63.3044 37.9335 62.1998V61.9998C37.9335 61.0057 37.1276 60.1998 36.1335 60.1998C35.1394 60.1998 34.3335 59.3939 34.3335 58.3998C34.3335 57.4057 33.5276 56.5998 32.5335 56.5998H32.3335ZM71.6668 58.5998C71.6668 57.4952 70.7714 56.5998 69.6668 56.5998H69.4668C68.4727 56.5998 67.6668 57.4057 67.6668 58.3998C67.6668 59.3939 66.8609 60.1998 65.8668 60.1998C64.8727 60.1998 64.0668 61.0057 64.0668 61.9998V62.1998C64.0668 63.3044 64.9623 64.1998 66.0668 64.1998H69.6668C70.7714 64.1998 71.6668 63.3044 71.6668 62.1998V58.5998Z" fill="white"/>
</svg>
